<?xml version="1.0" encoding="iso-8859-1"?>
<!-- Generator: Adobe Illustrator 19.0.0, SVG Export Plug-In . SVG Version: 6.00 Build 0)  -->
<svg version="1.1" id="Capa_1" xmlns="http://www.w3.org/2000/svg" xmlns:xlink="http://www.w3.org/1999/xlink" x="0px" y="0px"
	 viewBox="0 0 480.004 480.004" style="enable-background:new 0 0 480.004 480.004;" xml:space="preserve">
<g>
	<polygon style="fill:#827ED9;" points="144.002,438.114 144.002,402.818 117.738,385.586 	"/>
	<polygon style="fill:#827ED9;" points="94.882,351.45 276.066,249.042 283.938,262.962 109.93,361.322 152.29,389.122 
		402.73,169.978 413.274,182.026 166.178,398.234 207.65,425.45 207.658,425.458 261.378,460.714 453.226,136.058 25.266,305.762 	
		"/>
</g>
<g>
	<path style="fill:#DD763E;" d="M176.002,176.026c2.28-3.04,4.992-5.744,8.024-8.024c-3.032-2.28-5.744-4.984-8.024-8.024
		c-2.28,3.04-4.992,5.744-8.024,8.024C171.01,170.282,173.722,172.986,176.002,176.026z"/>
	<path style="fill:#DD763E;" d="M440.002,31.978c-2.28,3.04-4.992,5.744-8.024,8.024c3.032,2.28,5.744,4.984,8.024,8.024
		c2.28-3.04,4.992-5.744,8.024-8.024C444.994,37.722,442.282,35.018,440.002,31.978z"/>
</g>
<polygon style="fill:#827ED9;" points="160.002,455.642 189.514,432.69 160.002,413.322 "/>
<g>
	<path style="fill:#232323;" d="M469.05,112.562l-464,184c-2.776,1.104-4.704,3.656-5.008,6.624
		c-0.304,2.968,1.072,5.856,3.568,7.504l87.504,57.424l53.736,107.472c0.056,0.12,0.152,0.2,0.216,0.312
		c0.184,0.328,0.408,0.624,0.64,0.92c0.224,0.296,0.448,0.592,0.712,0.848c0.248,0.248,0.528,0.448,0.808,0.664
		c0.312,0.24,0.624,0.464,0.96,0.656c0.112,0.064,0.192,0.152,0.304,0.208s0.24,0.032,0.36,0.08c0.992,0.432,2.04,0.728,3.152,0.728
		c0.608,0,1.224-0.072,1.84-0.208c0.128-0.032,0.232-0.112,0.352-0.152c0.432-0.128,0.824-0.328,1.232-0.528
		c0.408-0.2,0.816-0.376,1.176-0.632c0.096-0.072,0.208-0.088,0.304-0.168l46.736-36.352l55.968,36.728
		c1.32,0.864,2.848,1.312,4.392,1.312c0.608,0,1.208-0.072,1.808-0.208c2.136-0.496,3.968-1.832,5.08-3.72l208-352
		c1.744-2.944,1.416-6.672-0.808-9.264C475.858,112.202,472.234,111.29,469.05,112.562z M117.738,385.586l26.264,17.232v35.288
		L117.738,385.586z M160.002,455.642v-42.32l29.512,19.368L160.002,455.642z M261.378,460.714l-53.72-35.256
		c-0.008,0-0.008-0.008-0.008-0.008l-41.472-27.216l247.096-216.208l-10.536-12.048L152.29,389.122l-42.36-27.8l174.008-98.36
		l-7.872-13.92L94.882,351.45l-69.616-45.688l427.96-169.704L261.378,460.714z"/>
	<path style="fill:#232323;" d="M86.482,99.658l-11.8-10.816c-3.696,4.04-7.32,8.296-10.744,12.656l12.576,9.888
		C79.698,107.346,83.05,103.402,86.482,99.658z"/>
	<path style="fill:#232323;" d="M67.434,123.834l-13.272-8.936c-3.096,4.6-6.04,9.344-8.76,14.096l13.888,7.936
		C61.818,132.514,64.554,128.114,67.434,123.834z"/>
	<path style="fill:#232323;" d="M108.874,78.522L98.778,66.114c-4.272,3.472-8.472,7.152-12.472,10.92l10.984,11.64
		C101.01,85.17,104.906,81.762,108.874,78.522z"/>
	<path style="fill:#232323;" d="M377.906,84.282c3.8,3.376,7.552,6.952,11.152,10.648l11.464-11.168
		c-3.872-3.968-7.904-7.824-12-11.448L377.906,84.282z"/>
	<path style="fill:#232323;" d="M219.89,16.89c-5.488,0.496-11.024,1.192-16.448,2.088l2.592,15.784
		c5.04-0.832,10.176-1.48,15.28-1.928L219.89,16.89z"/>
	<path style="fill:#232323;" d="M190.946,37.826l-3.76-15.544c-5.352,1.288-10.72,2.8-15.96,4.488l4.896,15.232
		C180.986,40.426,185.978,39.026,190.946,37.826z"/>
	<path style="fill:#232323;" d="M52.146,150.594l-14.44-6.904c-2.368,4.96-4.584,10.096-6.584,15.248l14.912,5.784
		C47.89,159.946,49.946,155.186,52.146,150.594z"/>
	<path style="fill:#232323;" d="M16.002,240.018c0,5.528,0.2,11.112,0.6,16.568l15.96-1.168c-0.376-5.072-0.56-10.248-0.56-15.4
		H16.002z"/>
	<path style="fill:#232323;" d="M41.002,179.306l-15.304-4.672c-1.6,5.24-3.024,10.632-4.24,16.032l15.608,3.512
		C38.194,189.17,39.514,184.17,41.002,179.306z"/>
	<path style="fill:#232323;" d="M267.434,33.794c5.008,0.664,10.128,1.528,15.208,2.576l3.232-15.672
		c-5.456-1.128-10.96-2.056-16.344-2.768L267.434,33.794z"/>
	<path style="fill:#232323;" d="M161.666,47.242l-6.04-14.816c-5.072,2.064-10.152,4.36-15.096,6.816l7.112,14.328
		C152.226,51.298,156.954,49.17,161.666,47.242z"/>
	<path style="fill:#232323;" d="M236.682,32.026l3.32-0.024c4.056,0,8.088,0.112,12.096,0.344l0.928-15.968
		c-4.312-0.248-8.656-0.376-13.024-0.376l-3.536,0.024L236.682,32.026z"/>
	<path style="fill:#232323;" d="M420.442,107.242c-2.816-3.808-5.752-7.536-8.8-11.168l-12.256,10.28
		c2.832,3.384,5.568,6.848,8.184,10.408L420.442,107.242z"/>
	<path style="fill:#232323;" d="M18.418,206.986c-0.808,5.448-1.416,10.984-1.816,16.472l15.96,1.168
		c0.368-5.104,0.936-10.248,1.68-15.312L18.418,206.986z"/>
	<path style="fill:#232323;" d="M312.218,44.874l5.568-15c-5.144-1.904-10.456-3.656-15.784-5.176l-4.416,15.376
		C302.53,41.498,307.458,43.106,312.218,44.874z"/>
	<path style="fill:#232323;" d="M366.018,74.506l9.704-12.72c-4.384-3.344-8.944-6.56-13.552-9.568l-8.736,13.408
		C357.714,68.41,361.946,71.402,366.018,74.506z"/>
	<path style="fill:#232323;" d="M121.178,69.266c4.208-2.936,8.568-5.744,12.944-8.336l-8.16-13.768
		c-4.712,2.792-9.408,5.816-13.944,8.976L121.178,69.266z"/>
	<path style="fill:#232323;" d="M340.218,57.69l7.72-14.016c-4.808-2.648-9.792-5.16-14.824-7.464l-6.664,14.544
		C331.122,52.898,335.754,55.226,340.218,57.69z"/>
	<path style="fill:#232323;" d="M332.346,426.434l7.128,14.328c4.96-2.472,9.856-5.136,14.568-7.92l-8.152-13.768
		C341.506,421.666,336.954,424.146,332.346,426.434z"/>
	<path style="fill:#232323;" d="M382.73,391.314l10.976,11.64c3.992-3.76,7.904-7.736,11.64-11.824l-11.816-10.8
		C390.066,384.138,386.434,387.826,382.73,391.314z"/>
	<path style="fill:#232323;" d="M442.938,285.85l15.608,3.512c1.208-5.368,2.224-10.848,3.032-16.312l-15.832-2.344
		C445.002,275.786,444.05,280.874,442.938,285.85z"/>
	<path style="fill:#232323;" d="M358.834,410.738l9.16,13.128c4.52-3.16,8.976-6.512,13.24-9.976l-10.096-12.424
		C367.17,404.69,363.034,407.81,358.834,410.738z"/>
	<path style="fill:#232323;" d="M447.442,255.394l15.96,1.168c0.4-5.456,0.6-11.032,0.6-16.56h-16
		C448.002,245.146,447.818,250.322,447.442,255.394z"/>
	<path style="fill:#232323;" d="M403.506,368.578l12.552,9.92c3.392-4.304,6.688-8.816,9.784-13.416l-13.264-8.936
		C409.706,360.418,406.65,364.594,403.506,368.578z"/>
	<path style="fill:#232323;" d="M433.962,315.29l14.912,5.784c2-5.144,3.824-10.416,5.424-15.672l-15.304-4.672
		C437.506,305.61,435.818,310.506,433.962,315.29z"/>
	<path style="fill:#232323;" d="M420.722,343.074l13.888,7.936c2.744-4.816,5.336-9.76,7.688-14.696l-14.448-6.888
		C425.666,334.018,423.274,338.61,420.722,343.074z"/>
	<path style="fill:#232323;" d="M472.002,32.002c-13.232,0-24-10.768-24-24c0-4.424-3.584-8-8-8s-8,3.576-8,8
		c0,13.232-10.768,24-24,24c-4.416,0-8,3.576-8,8s3.584,8,8,8c13.232,0,24,10.768,24,24c0,4.424,3.584,8,8,8s8-3.576,8-8
		c0-13.232,10.768-24,24-24c4.416,0,8-3.576,8-8S476.418,32.002,472.002,32.002z M440.002,48.026
		c-2.28-3.04-4.992-5.744-8.024-8.024c3.032-2.28,5.744-4.984,8.024-8.024c2.28,3.04,4.992,5.744,8.024,8.024
		C444.994,42.282,442.282,44.986,440.002,48.026z"/>
	<path style="fill:#232323;" d="M136.002,168.002c0,4.424,3.584,8,8,8c13.232,0,24,10.768,24,24c0,4.424,3.584,8,8,8s8-3.576,8-8
		c0-13.232,10.768-24,24-24c4.416,0,8-3.576,8-8s-3.584-8-8-8c-13.232,0-24-10.768-24-24c0-4.424-3.584-8-8-8s-8,3.576-8,8
		c0,13.232-10.768,24-24,24C139.586,160.002,136.002,163.578,136.002,168.002z M176.002,159.978c2.28,3.04,4.992,5.744,8.024,8.024
		c-3.032,2.28-5.744,4.984-8.024,8.024c-2.28-3.04-4.992-5.744-8.024-8.024C171.01,165.722,173.722,163.018,176.002,159.978z"/>
</g>
<g>
</g>
<g>
</g>
<g>
</g>
<g>
</g>
<g>
</g>
<g>
</g>
<g>
</g>
<g>
</g>
<g>
</g>
<g>
</g>
<g>
</g>
<g>
</g>
<g>
</g>
<g>
</g>
<g>
</g>
</svg>
